<svg width="93" height="20" viewBox="0 0 93 20" fill="none" xmlns="http://www.w3.org/2000/svg">
<path d="M3.09375 10.4531L10.4297 13.418V15.7148L0.84375 11.2734V9.5625L10.4297 5.13281V7.42969L3.09375 10.4531ZM89.8945 10.3828L82.1484 7.34766V5.12109L92.1562 9.55078V11.2617L82.1484 15.7031V13.4531L89.8945 10.3828Z" fill="#FF3F53"/>
<path d="M20.2383 19.4648H18.375L25.5 0.9375H27.3516L20.2383 19.4648ZM41.8242 2.78906H36.3398V18H34.1016V2.78906H28.6289V0.9375H41.8242V2.78906ZM57.4688 18H55.207V10.1133H46.6055V18H44.3555V0.9375H46.6055V8.27344H55.207V0.9375H57.4688V18ZM63.7148 11.3203V18H61.4648V0.9375H67.7578C69.625 0.9375 71.0859 1.41406 72.1406 2.36719C73.2031 3.32031 73.7344 4.58203 73.7344 6.15234C73.7344 7.80859 73.2148 9.08594 72.1758 9.98438C71.1445 10.875 69.6641 11.3203 67.7344 11.3203H63.7148ZM63.7148 9.48047H67.7578C68.9609 9.48047 69.8828 9.19922 70.5234 8.63672C71.1641 8.06641 71.4844 7.24609 71.4844 6.17578C71.4844 5.16016 71.1641 4.34766 70.5234 3.73828C69.8828 3.12891 69.0039 2.8125 67.8867 2.78906H63.7148V9.48047Z" fill="black"/>
</svg>
